<svg xmlns="http://www.w3.org/2000/svg" viewBox="0 0 145.8 32.08"><defs><style>.cls-2{fill:none;stroke-linecap:round;stroke-linejoin:round;stroke-width:3.41px;}</style></defs><title>basecamp-logo</title><g id="Layer_2" data-name="Layer 2"><g id="Layer_1-2" data-name="Layer 1"><path class="cls-1" fill="currentColor" d="M42.79,8.87h6.12c3.39,0,5.15,1.39,5.15,4V13a3.2,3.2,0,0,1-2.52,3.33A3.42,3.42,0,0,1,54.65,20v.09c0,2.85-1.87,4.35-5.46,4.35h-6.4Zm5.55,6.39c1.7,0,2.37-.61,2.37-2v-.09c0-1.3-.74-1.89-2.39-1.89H46.23v4Zm.3,6.73c1.74,0,2.53-.79,2.53-2.2V19.7c0-1.44-.79-2.17-2.7-2.17H46.23V22Z"/><path class="cls-1" fill="currentColor" d="M55.57,21.27c0-2.66,2.43-3.66,5.92-3.66h1.28v-.45c0-1.35-.41-2.09-1.85-2.09A1.72,1.72,0,0,0,59,16.68H56c.2-2.7,2.33-3.9,5.12-3.9s4.76,1.13,4.76,4.22v7.42H62.81V23.05a3.85,3.85,0,0,1-3.44,1.61C57.31,24.66,55.57,23.66,55.57,21.27Zm7.2-.83v-1H61.55c-1.83,0-2.89.4-2.89,1.61,0,.83.5,1.38,1.65,1.38C61.7,22.47,62.77,21.7,62.77,20.44Z"/><path class="cls-1" fill="currentColor" d="M67.21,20.85h2.94c.13,1,.63,1.62,2,1.62,1.22,0,1.79-.46,1.79-1.25s-.68-1.11-2.31-1.34c-3-.46-4.2-1.33-4.2-3.55s2.18-3.55,4.5-3.55c2.53,0,4.42.92,4.7,3.53H73.74c-.17-.94-.7-1.37-1.78-1.37s-1.61.48-1.61,1.17.54,1,2.19,1.24c2.85.41,4.42,1.13,4.42,3.57s-1.78,3.74-4.79,3.74S67.32,23.31,67.21,20.85Z"/><path class="cls-1" fill="currentColor" d="M77.77,18.87V18.7a5.65,5.65,0,0,1,5.85-5.92c2.94,0,5.55,1.72,5.55,5.79v.87H81c.08,1.89,1.11,3,2.82,3,1.46,0,2.18-.63,2.38-1.59h3c-.37,2.46-2.33,3.83-5.44,3.83C80.27,24.66,77.77,22.51,77.77,18.87ZM86.1,17.5C86,15.78,85.12,15,83.62,15A2.61,2.61,0,0,0,81,17.5Z"/><path class="cls-1" fill="currentColor" d="M90,18.87V18.7a5.65,5.65,0,0,1,5.87-5.92c2.64,0,5.07,1.15,5.36,4.42h-3a2.1,2.1,0,0,0-2.31-1.94c-1.63,0-2.72,1.22-2.72,3.4v.17c0,2.29,1,3.46,2.79,3.46a2.3,2.3,0,0,0,2.43-2.2h2.85c-.17,2.7-2.13,4.57-5.44,4.57S90,22.59,90,18.87Z"/><path class="cls-1" fill="currentColor" d="M102,21.27c0-2.66,2.43-3.66,5.91-3.66h1.29v-.45c0-1.35-.42-2.09-1.85-2.09a1.72,1.72,0,0,0-1.94,1.61h-3c.2-2.7,2.33-3.9,5.11-3.9s4.77,1.13,4.77,4.22v7.42h-3.07V23.05a3.85,3.85,0,0,1-3.44,1.61C103.78,24.66,102,23.66,102,21.27Zm7.2-.83v-1H108c-1.83,0-2.9.4-2.9,1.61,0,.83.51,1.38,1.66,1.38C108.17,22.47,109.24,21.7,109.24,20.44Z"/><path class="cls-1" fill="currentColor" d="M114.51,13h3.15v1.74a3.89,3.89,0,0,1,3.48-2,3.14,3.14,0,0,1,3.18,2,4.51,4.51,0,0,1,3.83-2c2.11,0,3.74,1.33,3.74,4.35v7.29h-3.13V17.48c0-1.46-.65-2.11-1.79-2.11a2.11,2.11,0,0,0-2.19,2.33v6.72h-3.14V17.48c0-1.46-.67-2.11-1.78-2.11a2.11,2.11,0,0,0-2.2,2.33v6.72h-3.15Z"/><path class="cls-1" fill="currentColor" d="M134.05,13h3.16v1.79a4.23,4.23,0,0,1,3.63-2.05c2.79,0,5,2.07,5,5.83v.18c0,3.76-2.13,5.87-5,5.87a4,4,0,0,1-3.63-2V28.3h-3.16Zm8.55,5.77v-.17c0-2.31-1.13-3.44-2.72-3.44s-2.78,1.15-2.78,3.44v.17c0,2.28,1.09,3.39,2.81,3.39S142.6,21,142.6,18.81Z"/><path class="cls-2" stroke="currentColor" d="M1.71,17.73c2.61-7.4,7.61-16,17.7-16S34.49,15,35.12,24c-2.65,4.6-9,6.33-15.71,6.33A18.87,18.87,0,0,1,5,24s3.16-8.53,6.11-8.55c2.17,0,4,4,5.73,4s5.33-7.68,5.33-7.68"/></g></g></svg>