<svg width="181px" height="21px" viewBox="0 0 181 21" version="1.1" xmlns="http://www.w3.org/2000/svg" xmlns:xlink="http://www.w3.org/1999/xlink">
  <path d="M0.43,20 L0.43,1.046 L4.075,1.046 L4.075,20 L0.43,20 Z M22.896,1.046 L26.514,1.046 L26.514,20.027 L25.677,20.27 L14.256,8.741 L14.256,20 L10.665,20 L10.665,1.019 L11.502,0.776 L22.896,12.305 L22.896,1.046 Z M36.479,16.922 L44.93,16.922 L44.93,20 L32.834,20 L32.834,1.046 L44.66,1.046 L44.66,4.124 L36.479,4.124 L36.479,8.849 L43.229,8.849 L43.229,11.927 L36.479,11.927 L36.479,16.922 Z M63.589,7.094 C63.589,9.578 62.023,11.549 60.241,12.44 L65.101,20 L60.673,20 L56.677,13.466 C55.867,13.547 55.057,13.574 54.139,13.493 L54.139,20 L50.494,20 L50.494,1.208 C59.458,-0.331 63.589,2.423 63.589,7.094 Z M54.139,4.232 L54.139,10.334 C58.108,10.739 59.836,9.254 59.836,7.04 C59.836,5.015 58,3.638 54.139,4.232 Z M82.194,1.046 L82.194,4.124 L76.875,4.124 L76.875,20 L73.23,20 L73.23,4.124 L67.938,4.124 L67.938,1.046 L82.194,1.046 Z M87.38,20 L87.38,1.046 L91.025,1.046 L91.025,20 L87.38,20 Z M99.775,20 L95.725,20 L104.5,0.857 L105.769,0.857 L114.49,20 L110.467,20 L109.036,16.922 L101.206,16.922 L99.775,20 Z M105.121,7.796 L102.502,13.898 L107.713,13.898 L105.121,7.796 Z" id="INERTIA" fill="#000000"></path>
  <path d="M123.785,19 L123.785,4.321 C133.487,2.851 135.776,8.206 135.776,11.65 C135.776,14.968 133.34,20.323 123.785,19 Z M126.011,6.19 L126.011,17.089 C129.728,17.488 133.403,15.724 133.403,11.629 C133.403,8.206 130.82,5.602 126.011,6.19 Z M137.54,11.65 C137.54,7.366 140.795,3.964 145.268,3.964 C149.741,3.964 153.017,7.366 153.017,11.65 C153.017,15.913 149.741,19.294 145.268,19.294 C140.795,19.294 137.54,15.913 137.54,11.65 Z M139.913,11.65 C139.913,15.052 142.37,17.32 145.268,17.32 C148.145,17.32 150.644,15.052 150.644,11.65 C150.644,8.248 148.145,5.917 145.268,5.917 C142.37,5.917 139.913,8.248 139.913,11.65 Z M166.94,15.577 L168.284,17.026 C167.276,18.013 165.638,19.294 162.467,19.294 C158.12,19.294 154.802,15.955 154.802,11.608 C154.802,6.988 158.477,3.964 162.572,3.964 C165.491,3.964 167.192,5.245 168.179,6.127 L166.856,7.702 C166.016,6.925 164.525,5.917 162.614,5.917 C159.569,5.917 157.196,8.416 157.196,11.608 C157.196,14.695 159.401,17.32 162.635,17.32 C164.378,17.32 166.058,16.438 166.94,15.577 Z M179.498,5.098 L178.784,6.946 C177.902,6.463 176.537,5.938 175.424,5.938 C173.744,5.938 172.673,6.799 172.673,7.954 C172.673,9.235 174.017,9.949 175.76,10.6 C178.952,11.839 180.107,13.33 180.065,15.262 C180.002,17.845 177.692,19.315 174.962,19.294 C172.82,19.273 171.14,18.475 170.216,17.719 L171.098,16.018 C171.917,16.627 173.303,17.362 174.836,17.362 C176.453,17.362 177.86,16.543 177.86,15.304 C177.86,13.855 176.327,13.246 174.311,12.364 C171.917,11.314 170.447,10.117 170.447,7.954 C170.447,6.022 172.022,3.964 175.235,3.964 C176.789,3.964 178.637,4.636 179.498,5.098 Z" id="DOCS" fill="#576ADA"></path>
</svg>