<svg width="179px" height="21px" viewBox="0 0 179 21" version="1.1" xmlns="http://www.w3.org/2000/svg" xmlns:xlink="http://www.w3.org/1999/xlink">
  <path d="M0.43,20 L0.43,1.046 L4.075,1.046 L4.075,20 L0.43,20 Z M22.896,1.046 L26.514,1.046 L26.514,20.027 L25.677,20.27 L14.256,8.741 L14.256,20 L10.665,20 L10.665,1.019 L11.502,0.776 L22.896,12.305 L22.896,1.046 Z M36.479,16.922 L44.93,16.922 L44.93,20 L32.834,20 L32.834,1.046 L44.66,1.046 L44.66,4.124 L36.479,4.124 L36.479,8.849 L43.229,8.849 L43.229,11.927 L36.479,11.927 L36.479,16.922 Z M63.589,7.094 C63.589,9.578 62.023,11.549 60.241,12.44 L65.101,20 L60.673,20 L56.677,13.466 C55.867,13.547 55.057,13.574 54.139,13.493 L54.139,20 L50.494,20 L50.494,1.208 C59.458,-0.331 63.589,2.423 63.589,7.094 Z M54.139,4.232 L54.139,10.334 C58.108,10.739 59.836,9.254 59.836,7.04 C59.836,5.015 58,3.638 54.139,4.232 Z M82.194,1.046 L82.194,4.124 L76.875,4.124 L76.875,20 L73.23,20 L73.23,4.124 L67.938,4.124 L67.938,1.046 L82.194,1.046 Z M87.38,20 L87.38,1.046 L91.025,1.046 L91.025,20 L87.38,20 Z M99.775,20 L95.725,20 L104.5,0.857 L105.769,0.857 L114.49,20 L110.467,20 L109.036,16.922 L101.206,16.922 L99.775,20 Z M105.121,7.796 L102.502,13.898 L107.713,13.898 L105.121,7.796 Z" id="INERTIA" fill="#000000"></path>
  <path d="M123.785,18.979 L123.785,4.363 C127.901,3.733 133.109,3.796 133.109,8.08 C133.109,9.613 132.269,10.705 131.471,11.104 C132.815,11.398 134.264,12.637 134.264,14.779 C134.264,18.139 131.45,19.798 123.785,18.979 Z M126.011,6.085 L126.011,10.474 L129.224,10.474 C130.148,10.348 130.925,9.445 130.925,8.332 C130.925,5.896 128.153,5.791 126.011,6.085 Z M126.011,12.196 L126.011,17.089 C129.308,17.425 131.996,17.026 131.996,14.611 C131.996,13.015 130.736,12.301 129.539,12.196 L126.011,12.196 Z M145.583,17.152 L145.583,19 L136.889,19 L136.889,4.258 L139.094,4.258 L139.094,17.152 L145.583,17.152 Z M147.032,11.65 C147.032,7.366 150.287,3.964 154.76,3.964 C159.233,3.964 162.509,7.366 162.509,11.65 C162.509,15.913 159.233,19.294 154.76,19.294 C150.287,19.294 147.032,15.913 147.032,11.65 Z M149.405,11.65 C149.405,15.052 151.862,17.32 154.76,17.32 C157.637,17.32 160.136,15.052 160.136,11.65 C160.136,8.248 157.637,5.917 154.76,5.917 C151.862,5.917 149.405,8.248 149.405,11.65 Z M173.387,13.309 L173.387,11.482 L178.343,11.482 L178.343,17.047 C176.432,18.895 174.353,19.294 172.253,19.294 C167.57,19.294 164.294,15.85 164.294,11.608 C164.294,7.135 167.906,3.964 172.022,3.964 C174.899,3.964 176.558,5.098 177.671,6.127 C177.23,6.652 176.747,7.177 176.306,7.702 C175.424,6.883 174.101,5.917 172.085,5.917 C169.082,5.917 166.709,8.395 166.709,11.566 C166.709,14.926 169.019,17.341 172.337,17.341 C173.723,17.341 175.424,16.837 176.18,16.144 L176.18,13.309 L173.387,13.309 Z" id="BLOG" fill="#576ADA"></path>
</svg>