<svg width="216px" height="21px" viewBox="0 0 216 21" version="1.1" xmlns="http://www.w3.org/2000/svg" xmlns:xlink="http://www.w3.org/1999/xlink">
  <path d="M132.437,5.098 L131.723,6.946 C130.841,6.463 129.476,5.938 128.363,5.938 C126.683,5.938 125.612,6.799 125.612,7.954 C125.612,9.235 126.956,9.949 128.699,10.6 C131.891,11.839 133.046,13.33 133.004,15.262 C132.941,17.845 130.631,19.315 127.901,19.294 C125.759,19.273 124.079,18.475 123.155,17.719 L124.037,16.018 C124.856,16.627 126.242,17.362 127.775,17.362 C129.392,17.362 130.799,16.543 130.799,15.304 C130.799,13.855 129.266,13.246 127.25,12.364 C124.856,11.314 123.386,10.117 123.386,7.954 C123.386,6.022 124.961,3.964 128.174,3.964 C129.728,3.964 131.576,4.636 132.437,5.098 Z M135.797,13.603 L135.797,4.258 L138.023,4.258 L138.023,13.561 C138.023,15.661 139.535,17.362 141.551,17.362 C143.567,17.362 145.079,15.661 145.079,13.561 L145.079,4.258 L147.284,4.258 L147.284,13.603 C147.284,16.501 145.331,19.294 141.53,19.294 C137.75,19.294 135.797,16.501 135.797,13.603 Z M160.325,9.046 C160.325,12.406 157.7,14.422 152.912,14.128 L152.912,19 L150.707,19 L150.707,4.363 C157.343,3.187 160.325,5.497 160.325,9.046 Z M152.912,6.169 L152.912,12.175 C156.482,12.427 158.057,11.146 158.057,9.025 C158.057,7.093 156.65,5.686 152.912,6.169 Z M172.568,9.046 C172.568,12.406 169.943,14.422 165.155,14.128 L165.155,19 L162.95,19 L162.95,4.363 C169.586,3.187 172.568,5.497 172.568,9.046 Z M165.155,6.169 L165.155,12.175 C168.725,12.427 170.3,11.146 170.3,9.025 C170.3,7.093 168.893,5.686 165.155,6.169 Z M174.29,11.65 C174.29,7.366 177.545,3.964 182.018,3.964 C186.491,3.964 189.767,7.366 189.767,11.65 C189.767,15.913 186.491,19.294 182.018,19.294 C177.545,19.294 174.29,15.913 174.29,11.65 Z M176.663,11.65 C176.663,15.052 179.12,17.32 182.018,17.32 C184.895,17.32 187.394,15.052 187.394,11.65 C187.394,8.248 184.895,5.917 182.018,5.917 C179.12,5.917 176.663,8.248 176.663,11.65 Z M202.073,8.773 C202.073,10.747 200.834,12.322 199.196,12.994 L203.291,19 L200.561,19 L197.012,13.624 C196.298,13.687 195.5,13.729 194.66,13.645 L194.66,19 L192.455,19 L192.455,4.363 C199.049,3.25 202.073,5.287 202.073,8.773 Z M194.66,6.169 L194.66,11.692 C198.104,12.112 199.805,10.768 199.805,8.752 C199.805,6.862 198.146,5.623 194.66,6.169 Z M215.198,4.258 L215.198,6.127 L210.83,6.127 L210.83,19 L208.625,19 L208.625,6.127 L204.278,6.127 L204.278,4.258 L215.198,4.258 Z" id="SUPPORT" fill="#576ADA"></path>
  <path d="M0.43,20 L0.43,1.046 L4.075,1.046 L4.075,20 L0.43,20 Z M22.896,1.046 L26.514,1.046 L26.514,20.027 L25.677,20.27 L14.256,8.741 L14.256,20 L10.665,20 L10.665,1.019 L11.502,0.776 L22.896,12.305 L22.896,1.046 Z M36.479,16.922 L44.93,16.922 L44.93,20 L32.834,20 L32.834,1.046 L44.66,1.046 L44.66,4.124 L36.479,4.124 L36.479,8.849 L43.229,8.849 L43.229,11.927 L36.479,11.927 L36.479,16.922 Z M63.589,7.094 C63.589,9.578 62.023,11.549 60.241,12.44 L65.101,20 L60.673,20 L56.677,13.466 C55.867,13.547 55.057,13.574 54.139,13.493 L54.139,20 L50.494,20 L50.494,1.208 C59.458,-0.331 63.589,2.423 63.589,7.094 Z M54.139,4.232 L54.139,10.334 C58.108,10.739 59.836,9.254 59.836,7.04 C59.836,5.015 58,3.638 54.139,4.232 Z M82.194,1.046 L82.194,4.124 L76.875,4.124 L76.875,20 L73.23,20 L73.23,4.124 L67.938,4.124 L67.938,1.046 L82.194,1.046 Z M87.38,20 L87.38,1.046 L91.025,1.046 L91.025,20 L87.38,20 Z M99.775,20 L95.725,20 L104.5,0.857 L105.769,0.857 L114.49,20 L110.467,20 L109.036,16.922 L101.206,16.922 L99.775,20 Z M105.121,7.796 L102.502,13.898 L107.713,13.898 L105.121,7.796 Z" id="INERTIA" fill="#000000"></path>
</svg>