<svg viewBox="0 0 1702 417" version="1.1" xmlns="http://www.w3.org/2000/svg" xmlns:xlink="http://www.w3.org/1999/xlink">
    <g id="Page-1" stroke="none" stroke-width="1" fill="none" fill-rule="evenodd">
        <g id="mailchimp-soft" fill="currentColor" fill-rule="nonzero">
            <path d="M1621.32917,306.029167 L1621.90833,306.0375 C1656.3375,306.0375 1680.56667,282.183333 1680.82917,248.045833 C1680.95833,231.141667 1676.075,215.666667 1667.07917,204.4875 C1657.56667,192.654167 1644.25,186.345833 1628.5625,186.220833 L1628.25,186.220833 C1607.07917,186.220833 1587.42083,202.283333 1568.15,235.333333 L1566.61667,237.970833 L1565.63333,235.095833 C1560.76667,220.933333 1556.43333,209.133333 1553.84167,202.070833 C1552.025,197.145833 1551.225,194.933333 1551.03333,194.216667 C1550.10833,190.641667 1547.05417,188.420833 1543.04583,188.420833 C1540.58333,188.420833 1537.96667,189.258333 1535.49167,190.833333 C1533.0375,192.395833 1531.66667,194.304167 1531.175,196.854167 L1531.05,197.2375 C1511.7625,257.391667 1495.8625,286.595833 1482.3875,286.595833 C1480.42917,286.579167 1478.89583,285.941667 1477.75417,284.666667 C1474.225,280.766667 1475.09167,271.491667 1476.29167,258.65 C1477.17083,249.216667 1478.175,238.5375 1477.75833,227.204167 C1476.96667,205.416667 1465.04167,192.333333 1445.87917,192.191667 C1421.52083,192.183333 1405.7375,218.125 1398.46667,233.5875 L1396.29583,238.195833 L1395.81667,233.1125 C1394,213.979167 1387.57917,191.125 1367.30417,190.975 C1343.65417,190.975 1325.6375,218.725 1314.64583,242.016667 L1311.7,248.258333 L1311.99167,241.366667 C1313.29583,210.304167 1314.36667,191.9625 1315.17917,186.875 C1315.97917,181.770833 1315.55833,178.345833 1313.8875,176.383333 C1312.30417,174.545833 1309.32083,173.866667 1304.94583,174.141667 C1297.375,174.620833 1293.50417,179.229167 1287.675,194.675 C1278.1,220.041667 1253.74583,279.058333 1234.3,279.058333 C1230.44167,279.029167 1227.3875,277.716667 1225.15,275.145833 C1216.99583,265.8 1220.25833,240.525 1224.77083,205.554167 L1225.1125,202.908333 C1227.25,186.35 1223.60833,182.816667 1214.6125,181.1625 C1213.71108,180.992846 1212.79638,180.903606 1211.87917,180.895833 C1204.69583,180.895833 1201.3375,187.775 1194.62917,206.891667 C1182.69167,240.908333 1167.3375,276.683333 1149.3875,276.683333 C1148.72917,276.683333 1148.08333,276.633333 1147.42083,276.529167 C1137.90833,274.908333 1138.11667,260.8 1138.37917,242.920833 C1138.5125,233.254167 1138.675,222.291667 1137.1875,212.395833 C1134.50417,194.6375 1124.04583,183.55 1109.875,183.4375 C1081.60833,183.4375 1062.54583,219.6375 1053.67917,241.220833 L1051.67083,246.104167 L1051,240.8625 C1049.25857,227.008441 1048.11445,213.085825 1047.57083,199.133333 L1047.54583,198.6125 L1047.86667,198.204167 C1100.77083,131.608333 1124.5125,83.55 1124.82917,42.375 C1125.03333,16.0708333 1112.89583,0.270833333 1092.36667,0.108333333 C1077.35417,0.108333333 1041.6625,12.6125 1029.25833,128.429167 C1026.94051,150.171524 1025.68901,172.01436 1025.50833,193.879167 L1025.5,194.3125 L1025.25417,194.6625 C1001.05,229.695833 949.391667,289.958333 898.816667,289.958333 C853.120833,289.958333 816.6625,252.9875 816.6625,187.729167 C816.6625,100.245833 878.583333,46.5333333 925.183333,46.5333333 L925.570833,46.5333333 C935.695833,46.6083333 944.379167,49.4375 950.679167,54.7125 C957.220833,60.1875 960.65,67.8625 960.579167,76.9041667 C960.4875,88.9833333 956.55,95.1916667 952.745833,101.1875 C951.775,102.733333 950.795833,104.266667 949.904167,105.891667 C949.004167,107.533333 948.183333,109.9125 949.379167,111.95 C950.604167,114.0375 953.733333,115.35 957.545833,115.379167 C968.6375,115.379167 985.4125,99.3208333 985.595833,75.1291667 C985.7875,49.8083333 964.458333,23.7166667 926.404167,23.7166667 C868.816667,23.7166667 791.254167,86.9833333 791.254167,189.516667 C791.254167,262.045833 836.729167,312.175 898.329167,312.175 C942.041667,312.175 985.283333,280.875 1023.57917,228.595833 L1025.925,225.429167 L1026.09167,229.3625 C1026.90417,248.5 1028.29167,263.575 1029.30417,274.5875 C1029.95833,281.666667 1030.43333,286.779167 1030.41667,289.6 C1030.36667,295.779167 1031.37083,300.079167 1033.50833,302.7125 C1035.6375,305.35 1039.02083,306.595833 1044.15417,306.629167 C1052.75417,306.629167 1054.47917,300.766667 1057.88333,286.3 L1058.8625,282.170833 C1063.09583,264.641667 1078.72917,207.425 1102.24167,207.425 C1106.08333,207.4625 1109.04583,208.595833 1111.15,210.825 C1116.34167,216.333333 1115.775,227.6375 1115.11667,240.733333 C1114.7,248.904167 1114.28333,257.341667 1115.1,265.5625 C1117.3125,287.754167 1126.89583,298.608333 1144.39167,298.733333 C1162.35833,298.741667 1181.10833,279.3875 1191.00417,261.404167 L1192.87083,258.016667 L1193.6,261.825 C1195.425,271.45 1203.59167,303.041667 1229.1625,303.041667 C1252.3375,303.041667 1272.22083,278.6375 1294.0125,228.408333 L1296.86667,221.85 L1296.69167,229.004167 C1296.22917,248.0375 1295.2,271.279167 1295.19167,289.25 C1295.18333,303.15 1296.5875,308.454167 1303.0125,308.454167 L1304.47083,308.520833 C1310.63333,308.520833 1314.81667,304.841667 1316.90417,297.566667 C1333.30417,240.4125 1347.475,213.795833 1361.51667,213.795833 C1375.26667,213.9 1376.55417,239.041667 1377.65833,283.466667 L1377.73333,286.583333 C1378.06667,302.120833 1378.62917,308.995833 1388.27917,309.066667 C1395.60417,309.066667 1397.425,303.3125 1401.2125,289.145833 C1401.9375,286.445833 1402.72083,283.483333 1403.65,280.283333 C1416.89167,234.345833 1427.86667,215.604167 1441.53333,215.604167 C1453.23333,215.691667 1453.88333,227.754167 1454.1,231.716667 C1454.55,240.204167 1453.675,249.091667 1452.83333,257.670833 C1452.04583,265.645833 1451.2375,273.895833 1451.54167,281.558333 C1452.25833,299.525 1462.09167,309.495833 1479.24167,309.625 C1501.5,309.625 1521.59167,283.591667 1539.1875,232.266667 L1540.40833,228.691667 L1541.80417,232.2125 C1545,240.279167 1549.15833,251.2 1553.00417,264.229167 L1553.15,264.725 L1552.9375,265.195833 C1535.89583,303.029167 1523.875,345.170833 1523.70417,367.6875 C1523.475,397.341667 1536.89167,416.6125 1557.8875,416.775 L1558.25,416.775 C1569.67083,416.775 1596.29167,412.1875 1596.80833,369.754167 C1597.02083,352.3625 1592.90833,327.770833 1584.60417,296.65 L1583.65,293.0875 L1586.7125,295.129167 C1597.35,302.166667 1609.30417,305.929167 1621.32917,306.029167 Z M1047.63333,162.116667 C1048.10833,151.483333 1049.00417,141.129167 1050.275,131.3375 C1058.51667,68.2458333 1075.70833,24.1875 1092.10417,24.1875 L1092.17917,24.1875 C1099.99583,24.2458333 1103.90417,30.1583333 1103.825,41.75 C1103.6,70.2375 1085.55,111.020833 1050.18333,162.966667 L1047.41667,167.033333 L1047.63333,162.116667 Z M1570.4375,388.9375 C1567.82917,392.4125 1564.19583,394.175 1559.64583,394.175 C1554.42083,394.129167 1550.49583,392.3125 1547.825,388.741667 C1540.34167,378.745833 1542.45,355.245833 1554.65833,312.591667 C1556.12083,307.491667 1557.7,302.370833 1559.375,297.358333 L1560.79167,293.104167 L1562.0375,297.408333 C1576.25833,346.645833 1579.08333,377.4375 1570.4375,388.9375 Z M1574.8625,262.791667 L1574.60417,262.320833 L1574.0875,260.683333 L1574.32917,260.195833 C1590.54583,226.779167 1609.12917,207.625 1625.29583,207.625 L1625.4625,207.625 C1643.72083,207.7625 1656.34583,224.195833 1656.17083,247.566667 C1656.05,263.166667 1649.17083,272.15 1643.42917,276.9375 C1636.875,282.404167 1628.14583,285.529167 1619.47917,285.529167 C1598.1125,285.366667 1583.44583,273.070833 1574.8625,262.791667 Z M540.55,300.504167 C565.583333,298.504167 585.441667,264.458333 592.816667,249.908333 L594.716667,246.158333 L595.4375,250.3 C598.979167,270.758333 610.108333,305.133333 644.920833,305.408333 L645.2125,305.408333 C660.270833,305.408333 677.354167,296.195833 694.620833,278.775 L695.8875,277.495833 L696.808333,279.033333 C708.433333,298.475 724.025,308.804167 740.625,307.954167 C765.0625,306.683333 779.895833,289.366667 781.2,277.3375 C781.533333,274.270833 780.725,271.383333 778.970833,269.4375 C776.775,266.9875 773.583333,266.704167 771.241667,268.95 L770.120833,270.008333 C764.433333,275.470833 753.833333,285.65 742.283333,286.25 C728.141667,286.941667 717.683333,278.4875 710.925,261.0375 L710.645833,260.304167 L711.120833,259.6875 C750.008333,208.825 777.295833,131.216667 774.6,79.1625 C773.358333,55.0708333 766.354167,26.35 740.041667,26.35 L738.079167,26.4 C728,26.9208333 718.833333,31.725 710.8375,40.6708333 C686.425,67.9833333 673.65,135.208333 678.2875,211.9375 C679.245833,227.879167 682.016667,242.779167 686.5125,256.208333 L686.766667,256.9625 L686.254167,257.570833 C671.825,274.433333 657.5875,283.720833 646.1625,283.720833 C618.675,283.720833 619.6,237.629167 621.770833,199.4125 C622.241667,191.170833 622.9375,185.920833 620.5,182.9375 C618.758333,180.8 615.841667,179.745833 611.591667,179.7125 L611.095833,179.708333 C601.3125,179.708333 599.266667,181.720833 594.2625,196.2375 C583.85,226.395833 563.295833,277.008333 542.620833,277.008333 C536.891667,276.954167 532.516667,275 529.520833,271.183333 C519.491667,258.383333 527.108333,226.458333 533.225,200.795833 C534.325,196.183333 535.379167,191.754167 536.283333,187.654167 C537.620833,181.570833 537.2125,177.133333 535.0625,174.445833 C532.904167,171.766667 528.6,170.683333 522.920833,171.133333 C514.066667,171.841667 508.404167,175.55 505.666667,192.3875 L505.116667,195.8875 L503.058333,193.395833 C499.191667,187.6875 491.654167,180.8875 477.658333,180.8875 C476.433333,180.8875 475.1625,180.9375 473.85,181.041667 C458.916667,182.266667 441.9125,192.670833 429.466667,208.2 C414.9375,226.329167 407.995833,249.275 409.929167,272.820833 C410.029167,274.066667 410.208333,275.2625 410.3875,276.45 L410.4875,277.104167 L410.0375,277.6 C401.345833,287.066667 392.4875,291.875 383.7125,291.875 C370.166667,291.775 362.395833,281.708333 362.395833,264.9375 C362.395833,236.7125 381.525,151.616667 381.525,120.8125 C381.525,88.0291667 366.916667,70.1833333 341.55,69.9875 L341.166667,69.9875 C304.125,69.9875 275.258333,112.016667 247.633333,198.491667 C245.009226,206.792948 242.461895,215.118303 239.991667,223.466667 L236.1125,236.470833 L237.258333,222.954167 C239.757151,193.966842 241.503572,164.919571 242.495833,135.841667 C243.870833,94.05 238.225,67.1541667 225.220833,53.6208333 C218.208333,46.3208333 208.933333,42.725 196.85,42.6333333 L196.541667,42.6333333 C151.216667,42.6333333 129.504167,119.075 113.691667,173.0125 C108.920833,189.295833 99.5166667,226.025 93.2375,251.133333 L96.9583333,245.0875 C99.7458333,213.470833 107.825,134.275 107.295833,91.3083333 C106.720833,45.2166667 91.3791667,24.5541667 57.525,24.2958333 L57.1083333,24.2958333 C39.025,24.2958333 26.4791667,33.2833333 19.1416667,40.8208333 C7.35833333,52.9208333 0.0166666667,70.6041667 0.425,85.875 C0.675,95.1583333 6.37083333,103.420833 10.6875,103.420833 C13.5,103.420833 15.0583333,99.6666667 15.7333333,97.4291667 C26.2083333,62.8083333 39.7625,45.975 57.1541667,45.975 C64.3666667,46.0291667 69.7375,48.1541667 73.7541667,52.475 C87.3458333,67.0541667 84.8708333,106.420833 80.3916667,177.891667 C78.9416667,200.925 77.3083333,227.020833 75.9291667,256.708333 C75.6885569,261.60672 75.4024335,266.502764 75.0708333,271.395833 C73.75,292.008333 72.7,308.3 80.5208333,309.5125 C90.6958333,311.1 97.3166667,306.966667 100.708333,296.9 C105.733333,281.958333 117.004167,241.120833 138.8125,166.5 C159.7375,94.8916667 175.545833,68.8375 195.770833,68.8375 C219.1375,68.8375 220.879167,108.958333 216.595833,193.625 C215.683333,211.575 214.4625,231.904167 213.525,254.025 C213.395833,257.133333 213.25,260.15 213.1,263.05 C212.2,281.370833 211.491667,295.816667 216.725,301.358333 C218.358333,303.083333 220.575,303.9375 223.5125,303.954167 C233.641667,303.954167 236.6875,295.075 241.733333,280.354167 C242.625,277.758333 243.570833,274.983333 244.625,272.083333 C279.333333,176.3375 304.995833,93.2666667 339.441667,93.2666667 C349.770833,93.2666667 357.8125,101.658333 357.8125,118.025 C357.8125,155.804167 339.3375,228.8 339.3375,265.816667 C339.3375,279.079167 343.154167,290.979167 350.3625,299.345833 C357.7625,307.9375 368.116667,312.5125 380.304167,312.616667 L380.570833,312.616667 C392.095833,312.616667 404.1,307.016667 416.266667,295.975 L417.408333,294.941667 L418.325,296.179167 C426.3375,306.945833 439.2625,312.733333 453.220833,311.658333 C474.629167,309.991667 492.591667,290.929167 499.275,272.954167 L500.583333,269.4375 L501.8875,272.954167 C506.854167,286.291667 517.595833,302.366667 540.55,300.504167 Z M737.816667,50.3291667 L738.183333,50.3208333 C740.629167,50.3208333 742.779167,51.5458333 744.5625,53.9708333 C753.0625,65.4625 753.191667,107.408333 738.570833,155.133333 C730.216667,182.408333 718.979167,208.175 706.0875,229.6375 L704.029167,233.054167 L703.504167,229.1 C701.9875,217.558333 701.2375,205.541667 700.7125,195.316667 C696.983333,123.179167 718.804167,51.3166667 737.816667,50.3291667 Z M500.283333,218.925 C492.791667,249.070833 478.425,285.4625 452.520833,287.545833 L450.4125,287.633333 C439.666667,287.633333 433.641667,280.6 432.504167,266.716667 C431.079167,249.35 438.566667,229.0125 451.575,214.891667 C459.854167,205.9 469.195833,200.95 477.875,200.95 L478.05,200.95 C489.004167,201.033333 496.683333,209.829167 500.2125,218.033333 L500.4,218.458333 L500.283333,218.925 Z M620.429167,108.404167 C610.866667,108.404167 603.145833,115.9375 603.070833,125.2 C602.995833,134.529167 610.670833,142.179167 620.170833,142.25 L620.308333,143.6375 L620.308333,142.25 C629.733333,142.25 637.45,134.720833 637.525,125.4625 C637.6,116.129167 629.929167,108.479167 620.429167,108.404167 Z M1221.65,108.404167 C1212.0875,108.404167 1204.37083,115.9375 1204.29167,125.2 C1204.21667,134.529167 1211.8875,142.179167 1221.39167,142.25 L1221.525,143.6375 L1221.525,142.25 C1230.95833,142.25 1238.675,134.720833 1238.75,125.4625 C1238.81667,116.129167 1231.15,108.479167 1221.65,108.404167 Z" id="Shape"></path>
            <path d="M1689.84583,286.929167 C1683.3626,286.940646 1678.11105,292.195925 1678.10417,298.679167 C1678.11794,305.156172 1683.36882,310.40146 1689.84583,310.408333 C1696.32353,310.401467 1701.5756,305.156846 1701.59167,298.679167 C1701.58707,292.193351 1696.33165,286.93606 1689.84583,286.929167 Z M1689.84583,308.7125 C1684.2875,308.7125 1679.80833,304.241667 1679.80833,298.683333 C1679.80833,293.125 1684.2875,288.641667 1689.84583,288.641667 C1695.4,288.641667 1699.8875,293.125 1699.8875,298.683333 C1699.8875,304.241667 1695.4,308.7125 1689.84583,308.7125 Z M1695.05,295.6125 C1695.05,293.1875 1693.85833,291.8625 1690.79167,291.8625 L1685.58333,291.8625 L1685.58333,305.395833 L1687.2875,305.395833 L1687.2875,299.470833 L1689.72083,299.470833 L1693.7625,305.395833 L1695.6875,305.395833 L1691.64583,299.470833 C1693.47917,299.15 1695.05,298.108333 1695.05,295.6125 Z M1689.47083,297.945833 L1687.29583,297.945833 L1687.29583,293.366667 L1690.325,293.366667 C1691.77917,293.366667 1693.3625,293.870833 1693.3625,295.604167 C1693.35,297.858333 1691.33333,297.945833 1689.47083,297.945833 Z" id="Shape"></path>
        </g>
    </g>
</svg>